<svg width="16" height="16" viewBox="0 0 16 16" fill="none" xmlns="http://www.w3.org/2000/svg">
    <circle cx="8" cy="8" r="8" fill="white"></circle>
    <circle cx="8" cy="8" r="7.5" stroke="black" stroke-opacity="0.3"></circle>
    <path fill-rule="evenodd" clip-rule="evenodd" d="M4.81801 4.81802C4.42749 5.20854 4.42749 5.84171 4.81801 6.23223L6.58578 8L4.81801 9.76777C4.42749 10.1583 4.42749 10.7915 4.81801 11.182C5.20854 11.5725 5.8417 11.5725 6.23223 11.182L7.99999 9.41421L9.76776 11.182C10.1583 11.5725 10.7914 11.5725 11.182 11.182C11.5725 10.7915 11.5725 10.1583 11.182 9.76777L9.41421 8L11.182 6.23223C11.5725 5.84171 11.5725 5.20854 11.182 4.81802C10.7914 4.4275 10.1583 4.42749 9.76776 4.81802L7.99999 6.58579L6.23223 4.81802C5.8417 4.4275 5.20854 4.4275 4.81801 4.81802Z" fill="black"></path>
</svg>
